<svg xmlns="http://www.w3.org/2000/svg" version="1.1" xmlns:xlink="http://www.w3.org/1999/xlink" xmlns:svgjs="http://svgjs.dev/svgjs" width="1500" height="935" viewBox="0 0 1500 935"><g transform="matrix(1,0,0,1,-0.9090909090909918,0.3785425101214628)"><svg viewBox="0 0 396 247" data-background-color="#ffffff" preserveAspectRatio="xMidYMid meet" height="935" width="1500" xmlns="http://www.w3.org/2000/svg" xmlns:xlink="http://www.w3.org/1999/xlink"><g id="tight-bounds" transform="matrix(1,0,0,1,0.2400000000000091,-0.09999999999999432)"><svg viewBox="0 0 395.52 247.2" height="247.2" width="395.52"><g><svg></svg></g><g><svg viewBox="0 0 395.52 247.2" height="247.2" width="395.52"><g transform="matrix(1,0,0,1,75.54432,70.35504535641084)"><svg viewBox="0 0 244.43135999999998 106.4899092871783" height="106.4899092871783" width="244.43135999999998"><g><svg viewBox="0 0 244.43135999999998 106.4899092871783" height="106.4899092871783" width="244.43135999999998"><g><svg viewBox="0 0 244.43135999999998 106.4899092871783" height="106.4899092871783" width="244.43135999999998"><g><svg viewBox="0 0 244.43135999999998 106.4899092871783" height="106.4899092871783" width="244.43135999999998"><g id="textblocktransform"><svg viewBox="0 0 244.43135999999998 106.4899092871783" height="106.4899092871783" width="244.43135999999998" id="textblock"><g><svg viewBox="0 0 244.43135999999998 106.4899092871783" height="106.4899092871783" width="244.43135999999998"><g transform="matrix(1,0,0,1,0,0)"><svg width="244.43135999999998" viewBox="3.83 -36.04 107.2 46.71" height="106.4899092871783" data-palette-color="#0441d8"><path d="M27.05-35.55L27.05 0 22.56 0 8.33-27.39 8.33 0 3.83 0 3.83-35.55 8.33-35.55 22.61-8.03 22.61-35.55 27.05-35.55ZM38.84-26.42L38.84 0 34.52 0 34.52-26.42 38.84-26.42ZM39.18-33.42L39.18-33.42Q39.18-32.32 38.57-31.59 37.96-30.86 36.72-30.86L36.72-30.86Q35.5-30.86 34.89-31.59 34.27-32.32 34.27-33.42 34.27-34.52 34.89-35.28 35.5-36.04 36.72-36.04 37.94-36.04 38.56-35.27 39.18-34.5 39.18-33.42ZM62.71-19.53L62.71-15.7 50.7-15.7 50.7 0 46.24 0 46.24-35.55 64.74-35.55 64.74-31.69 50.7-31.69 50.7-19.53 62.71-19.53ZM91.52-35.55L91.52-31.69 82.17-31.69 82.17 0 77.7 0 77.7-31.69 68.38-31.69 68.38-35.55 91.52-35.55ZM96.74-26.42L101.63-7.18 106.44-26.42 111.03-26.42 102.38 3.74Q101.41 7.13 99.62 8.9 97.84 10.67 95.57 10.67L95.57 10.67Q94.69 10.67 93.32 10.28L93.32 10.28 93.32 6.62 94.28 6.71Q96.16 6.71 97.22 5.82 98.28 4.93 98.94 2.73L98.94 2.73 99.79-0.22 92.03-26.42 96.74-26.42Z" opacity="1" transform="matrix(1,0,0,1,0,0)" fill="#0441d8" class="wordmark-text-0" data-fill-palette-color="primary" id="text-0"></path></svg></g></svg></g></svg></g></svg></g></svg></g></svg></g></svg></g><path d="M164.941 64.355L164.941 14.017 384.106 14.017 384.106 233.183 164.941 233.183 164.941 182.845 174.544 182.845 174.544 223.579 374.502 223.579 374.502 23.621 174.544 23.621 174.544 64.355Z" fill="#0441d8" stroke="transparent" data-fill-palette-color="tertiary"></path></svg></g><defs></defs></svg><rect width="395.52" height="247.2" fill="none" stroke="none" visibility="hidden"></rect></g></svg></g></svg>